<mxfile host="app.diagrams.net" modified="2022-11-04T20:44:07.940Z" agent="5.0 (Macintosh; Intel Mac OS X 10_15_7) AppleWebKit/537.36 (KHTML, like Gecko) Chrome/106.0.0.0 Safari/537.36" etag="aONJviCU8Ok7x-YnKwhu" version="20.3.0" type="github">
  <diagram id="C5RBs43oDa-KdzZeNtuy" name="Page-1">
    <mxGraphModel dx="935" dy="632" grid="1" gridSize="10" guides="1" tooltips="1" connect="1" arrows="1" fold="1" page="1" pageScale="1" pageWidth="827" pageHeight="1169" math="0" shadow="0">
      <root>
        <mxCell id="WIyWlLk6GJQsqaUBKTNV-0" />
        <mxCell id="WIyWlLk6GJQsqaUBKTNV-1" parent="WIyWlLk6GJQsqaUBKTNV-0" />
        <mxCell id="rWoYHG3ChSwZRX66SjXA-2" value="" style="edgeStyle=orthogonalEdgeStyle;rounded=0;orthogonalLoop=1;jettySize=auto;html=1;" edge="1" parent="WIyWlLk6GJQsqaUBKTNV-1" source="WIyWlLk6GJQsqaUBKTNV-3" target="rWoYHG3ChSwZRX66SjXA-0">
          <mxGeometry relative="1" as="geometry" />
        </mxCell>
        <mxCell id="WIyWlLk6GJQsqaUBKTNV-3" value="Initialise&lt;br&gt;Smart Contract" style="rounded=1;whiteSpace=wrap;html=1;fontSize=12;glass=0;strokeWidth=1;shadow=0;fillColor=#dae8fc;strokeColor=#6c8ebf;" parent="WIyWlLk6GJQsqaUBKTNV-1" vertex="1">
          <mxGeometry x="360" y="20" width="120" height="40" as="geometry" />
        </mxCell>
        <mxCell id="rWoYHG3ChSwZRX66SjXA-4" value="" style="edgeStyle=orthogonalEdgeStyle;rounded=0;orthogonalLoop=1;jettySize=auto;html=1;" edge="1" parent="WIyWlLk6GJQsqaUBKTNV-1" source="rWoYHG3ChSwZRX66SjXA-0" target="rWoYHG3ChSwZRX66SjXA-3">
          <mxGeometry relative="1" as="geometry" />
        </mxCell>
        <mxCell id="rWoYHG3ChSwZRX66SjXA-0" value="Read the MW (units) of the generation offered by each prosumer" style="rounded=1;whiteSpace=wrap;html=1;fillColor=#dae8fc;strokeColor=#6c8ebf;" vertex="1" parent="WIyWlLk6GJQsqaUBKTNV-1">
          <mxGeometry x="360" y="90" width="120" height="70" as="geometry" />
        </mxCell>
        <mxCell id="rWoYHG3ChSwZRX66SjXA-6" value="" style="edgeStyle=orthogonalEdgeStyle;rounded=0;orthogonalLoop=1;jettySize=auto;html=1;" edge="1" parent="WIyWlLk6GJQsqaUBKTNV-1" source="rWoYHG3ChSwZRX66SjXA-3" target="rWoYHG3ChSwZRX66SjXA-5">
          <mxGeometry relative="1" as="geometry" />
        </mxCell>
        <mxCell id="rWoYHG3ChSwZRX66SjXA-3" value="Declare the offered generation to the consumers" style="rounded=1;whiteSpace=wrap;html=1;fillColor=#dae8fc;strokeColor=#6c8ebf;" vertex="1" parent="WIyWlLk6GJQsqaUBKTNV-1">
          <mxGeometry x="360" y="200" width="120" height="70" as="geometry" />
        </mxCell>
        <mxCell id="rWoYHG3ChSwZRX66SjXA-19" value="" style="edgeStyle=orthogonalEdgeStyle;rounded=0;orthogonalLoop=1;jettySize=auto;html=1;" edge="1" parent="WIyWlLk6GJQsqaUBKTNV-1" source="rWoYHG3ChSwZRX66SjXA-5" target="rWoYHG3ChSwZRX66SjXA-7">
          <mxGeometry relative="1" as="geometry" />
        </mxCell>
        <mxCell id="rWoYHG3ChSwZRX66SjXA-5" value="Start the auction/bidding" style="rounded=1;whiteSpace=wrap;html=1;fillColor=#dae8fc;strokeColor=#6c8ebf;" vertex="1" parent="WIyWlLk6GJQsqaUBKTNV-1">
          <mxGeometry x="360" y="310" width="120" height="70" as="geometry" />
        </mxCell>
        <mxCell id="rWoYHG3ChSwZRX66SjXA-24" value="" style="edgeStyle=orthogonalEdgeStyle;rounded=0;orthogonalLoop=1;jettySize=auto;html=1;" edge="1" parent="WIyWlLk6GJQsqaUBKTNV-1" source="rWoYHG3ChSwZRX66SjXA-7" target="rWoYHG3ChSwZRX66SjXA-23">
          <mxGeometry relative="1" as="geometry" />
        </mxCell>
        <mxCell id="rWoYHG3ChSwZRX66SjXA-7" value="Clear the market using a auction/rank method" style="rounded=1;whiteSpace=wrap;html=1;fillColor=#dae8fc;strokeColor=#6c8ebf;" vertex="1" parent="WIyWlLk6GJQsqaUBKTNV-1">
          <mxGeometry x="360" y="410" width="120" height="70" as="geometry" />
        </mxCell>
        <mxCell id="rWoYHG3ChSwZRX66SjXA-26" value="" style="edgeStyle=orthogonalEdgeStyle;rounded=0;orthogonalLoop=1;jettySize=auto;html=1;" edge="1" parent="WIyWlLk6GJQsqaUBKTNV-1" source="rWoYHG3ChSwZRX66SjXA-23" target="rWoYHG3ChSwZRX66SjXA-25">
          <mxGeometry relative="1" as="geometry" />
        </mxCell>
        <mxCell id="rWoYHG3ChSwZRX66SjXA-28" value="Inter" style="edgeLabel;html=1;align=center;verticalAlign=middle;resizable=0;points=[];" vertex="1" connectable="0" parent="rWoYHG3ChSwZRX66SjXA-26">
          <mxGeometry x="-0.0872" y="1" relative="1" as="geometry">
            <mxPoint as="offset" />
          </mxGeometry>
        </mxCell>
        <mxCell id="rWoYHG3ChSwZRX66SjXA-30" value="" style="edgeStyle=orthogonalEdgeStyle;rounded=0;orthogonalLoop=1;jettySize=auto;html=1;" edge="1" parent="WIyWlLk6GJQsqaUBKTNV-1" source="rWoYHG3ChSwZRX66SjXA-23" target="rWoYHG3ChSwZRX66SjXA-29">
          <mxGeometry relative="1" as="geometry" />
        </mxCell>
        <mxCell id="rWoYHG3ChSwZRX66SjXA-31" value="Intra" style="edgeLabel;html=1;align=center;verticalAlign=middle;resizable=0;points=[];" vertex="1" connectable="0" parent="rWoYHG3ChSwZRX66SjXA-30">
          <mxGeometry x="-0.208" y="-2" relative="1" as="geometry">
            <mxPoint as="offset" />
          </mxGeometry>
        </mxCell>
        <mxCell id="rWoYHG3ChSwZRX66SjXA-23" value="Check the nature of trade" style="rhombus;whiteSpace=wrap;html=1;fillColor=#dae8fc;strokeColor=#6c8ebf;rounded=1;" vertex="1" parent="WIyWlLk6GJQsqaUBKTNV-1">
          <mxGeometry x="340" y="516" width="160" height="95" as="geometry" />
        </mxCell>
        <mxCell id="rWoYHG3ChSwZRX66SjXA-36" value="" style="edgeStyle=orthogonalEdgeStyle;rounded=0;orthogonalLoop=1;jettySize=auto;html=1;" edge="1" parent="WIyWlLk6GJQsqaUBKTNV-1" source="rWoYHG3ChSwZRX66SjXA-25" target="rWoYHG3ChSwZRX66SjXA-33">
          <mxGeometry relative="1" as="geometry">
            <Array as="points">
              <mxPoint x="660" y="670" />
            </Array>
          </mxGeometry>
        </mxCell>
        <mxCell id="rWoYHG3ChSwZRX66SjXA-25" value="Requests permission to governing authority" style="whiteSpace=wrap;html=1;fillColor=#dae8fc;strokeColor=#6c8ebf;rounded=1;" vertex="1" parent="WIyWlLk6GJQsqaUBKTNV-1">
          <mxGeometry x="600" y="533.5" width="120" height="60" as="geometry" />
        </mxCell>
        <mxCell id="rWoYHG3ChSwZRX66SjXA-35" value="" style="edgeStyle=orthogonalEdgeStyle;rounded=0;orthogonalLoop=1;jettySize=auto;html=1;" edge="1" parent="WIyWlLk6GJQsqaUBKTNV-1" source="rWoYHG3ChSwZRX66SjXA-29" target="rWoYHG3ChSwZRX66SjXA-33">
          <mxGeometry relative="1" as="geometry">
            <Array as="points">
              <mxPoint x="180" y="670" />
            </Array>
          </mxGeometry>
        </mxCell>
        <mxCell id="rWoYHG3ChSwZRX66SjXA-29" value="Does not have to request governing authority" style="whiteSpace=wrap;html=1;fillColor=#dae8fc;strokeColor=#6c8ebf;rounded=1;" vertex="1" parent="WIyWlLk6GJQsqaUBKTNV-1">
          <mxGeometry x="120" y="533.5" width="120" height="56.5" as="geometry" />
        </mxCell>
        <mxCell id="rWoYHG3ChSwZRX66SjXA-33" value="" style="triangle;whiteSpace=wrap;html=1;direction=south;" vertex="1" parent="WIyWlLk6GJQsqaUBKTNV-1">
          <mxGeometry x="360" y="670" width="120" height="50" as="geometry" />
        </mxCell>
      </root>
    </mxGraphModel>
  </diagram>
</mxfile>
